<?xml version="1.0" encoding="utf-8"?>
<!-- Generator: Adobe Illustrator 24.0.1, SVG Export Plug-In . SVG Version: 6.00 Build 0)  -->
<svg version="1.1" id="Calque_1" xmlns="http://www.w3.org/2000/svg" xmlns:xlink="http://www.w3.org/1999/xlink" x="0px" y="0px"
	 viewBox="0 0 180 175" style="enable-background:new 0 0 180 175;" xml:space="preserve">
<style type="text/css">
	.st0{fill:#FF00CD;}
	.st1{fill:#BC00A6;}
</style>
<path class="st0" d="M175.5,131.5c0,3.1-10.1,32.8-12,34c-19,12-28.2-4.3-31.3-3.7c-23.2,4.5-82.8-28.7-95.2-38.3
	c-15.5-12-35.5-27.3-35.5-61s15.9-61,35.5-61c8.5,0,1.1,36.8,14.5,62c9.2,17.3,29.8,39,84.5,30.5c5.1-0.8,17.3,4,20.5,6.5
	C170.8,111.6,175.5,124.1,175.5,131.5z"/>
<path class="st1" d="M6.4,51.5c-2.3,31,9.2,94,122.9,114c0,0,0.8,0,10.7,7s47.3-9,36.6-45c-10.7-36-32.8-39-54.2-32
	c0,0,21.4-2,35.9,10s14.5,28,12.2,39s-17.6,24-28.2,18s-40.4-4-72.5-21s-48.1-42-54.2-54S6.4,51.5,6.4,51.5z"/>
</svg>
