<?xml version="1.0" encoding="utf-8"?>
<!-- Generator: Adobe Illustrator 24.0.1, SVG Export Plug-In . SVG Version: 6.00 Build 0)  -->
<svg version="1.1" id="Calque_1" xmlns="http://www.w3.org/2000/svg" xmlns:xlink="http://www.w3.org/1999/xlink" x="0px" y="0px"
	 viewBox="0 0 433 594" style="enable-background:new 0 0 433 594;" xml:space="preserve">
<style type="text/css">
	.st0{fill:#FF00CD;}
	.st1{fill:#BC00A6;}
	.st2{fill:#FCBFF2;}
	.st3{fill:#DDA7D7;}
	.st4{fill:#FFFFFF;}
</style>
<path class="st0" d="M389.6,133.5c-0.2-2.7-0.7-5.2-1.3-7.5C376.2,55.1,302.6,0.5,213.5,0.5C119.7,0.5,43.1,61,37.4,137.4l0,0l0,0
	c0,0.6-0.1,1.2-0.1,1.8C24,312.6,55,430.6,63,456.5c1,3.4,2.6,6.6,4.7,9.5c43.3,63.7,193.9,80.6,280.3,11.5c4-4,13-13,15.5-21.3
	C371.3,429.9,403.4,309.9,389.6,133.5z"/>
<path class="st0" d="M72,402.5c-47,41-60,120-65,145s41,52,107,46s59-25,59-39s5-61-8-92S88,388.6,72,402.5z"/>
<path class="st1" d="M55,437.5c-24,52-24,123,14,134s-39,7-50-12s8-68,15-86S55,437.5,55,437.5z"/>
<path class="st2" d="M15,568.5c12.5-12.6,35.5,8.9,29.4,16.1c-6.2,7.2-28.8-7.9-30.3-10.8S15,568.5,15,568.5z"/>
<path class="st3" d="M19,567.5c-4,4-1,6,3,9s14.2,8.3,17.6,7.7c0,0-3.6,3.3-14.6-3.7s-11-7-10-10S19,567.5,19,567.5z"/>
<path class="st2" d="M130.9,589.3c1.7-17.7,33.2-15.6,32.9-6.1c-0.3,9.4-27.3,12.2-30.3,10.8S130.9,589.3,130.9,589.3z"/>
<path class="st0" d="M347.6,402.5c47,41,60,120,65,145s-41,52-107,46s-59-25-59-39s-5-61,8-92S331.6,388.6,347.6,402.5z"/>
<path class="st1" d="M364.6,437.5c24,52,24,123-14,134s39,7,50-12s-8-68-15-86S364.6,437.5,364.6,437.5z"/>
<path class="st2" d="M288.6,589.3c-1.7-17.7-33.2-15.6-32.9-6.1c0.3,9.4,27.3,12.2,30.3,10.8C289.1,592.6,288.6,589.3,288.6,589.3z"
	/>
<circle class="st1" cx="232" cy="47.2" r="20.5"/>
<circle class="st1" cx="162" cy="82.8" r="20.5"/>
<circle class="st1" cx="296.8" cy="70.1" r="20.5"/>
<circle class="st1" cx="188.6" cy="34.7" r="10.5"/>
<path class="st1" d="M184.3,159.5c33.7-24,64.4-13,81.3,0c7.8,6,3.3,14-24.1,5s-31.2,8-48.1,8S184.3,159.5,184.3,159.5z"/>
<path d="M100,204c55,7.5,182,0.5,232,0.5c0,0,17.4,4.2-106,7C95,214.5,100,204,100,204z"/>
<path class="st2" d="M404.6,568.5c-12.5-12.6-35.5,8.9-29.4,16.1c6.2,7.2,28.8-7.9,30.3-10.8S404.6,568.5,404.6,568.5z"/>
<path class="st3" d="M400.6,567.5c4,4,1,6-3,9s-14.2,8.3-17.6,7.7c0,0,3.6,3.3,14.6-3.7s11-7,10-10S400.6,567.5,400.6,567.5z"/>
<path class="st1" d="M100,47.2C61,95,45,177,43.7,208c0,0-1.7-70.6,7.5-102.4S100,47.2,100,47.2z"/>
<ellipse cx="131" cy="149" rx="23.5" ry="20.9"/>
<ellipse cx="311" cy="149" rx="23.5" ry="20.9"/>
<circle class="st4" cx="132.5" cy="158.9" r="5"/>
<circle class="st4" cx="306.5" cy="158.9" r="5"/>
<path class="st1" d="M91.6,127.6c13.3-16.7,49.5-25.9,70.4,0c0,0-2.7-22.4-29.5-26S91.6,127.6,91.6,127.6z"/>
<path class="st1" d="M276.3,129.6c13.3-16.7,49.5-25.9,70.4,0c0,0-2.7-22.4-29.5-26C290.5,100,276.3,129.6,276.3,129.6z"/>
</svg>
