<?xml version="1.0" encoding="utf-8"?>
<!-- Generator: Adobe Illustrator 24.0.1, SVG Export Plug-In . SVG Version: 6.00 Build 0)  -->
<svg version="1.1" id="Calque_1" xmlns="http://www.w3.org/2000/svg" xmlns:xlink="http://www.w3.org/1999/xlink" x="0px" y="0px"
	 viewBox="0 0 515.4 675.6" style="enable-background:new 0 0 515.4 675.6;" xml:space="preserve">
<style type="text/css">
	.st0{fill:#C96E31;}
	.st1{fill:#54B4C7;}
	.st2{fill:#AB5D2A;}
	.st3{fill:none;stroke:#7F4248;stroke-width:3;stroke-miterlimit:10;}
	.st4{fill:#DC794C;}
	.st5{fill:#7F4248;}
	.st6{fill:none;stroke:#53B4C7;stroke-width:3;stroke-miterlimit:10;}
	.st7{fill:none;stroke:#53B4C7;stroke-width:3;stroke-miterlimit:10;stroke-dasharray:11.4185,11.4185;}
	.st8{fill:none;stroke:#53B4C7;stroke-width:3;stroke-miterlimit:10;stroke-dasharray:11.2391,11.2391;}
	.st9{fill:none;stroke:#53B4C7;stroke-width:3;stroke-miterlimit:10;stroke-dasharray:11.9515,11.9515;}
	.st10{fill:none;stroke:#53B4C7;stroke-width:3;stroke-miterlimit:10;stroke-dasharray:11.725,11.725;}
	.st11{fill:none;stroke:#53B4C7;stroke-width:3;stroke-miterlimit:10;stroke-dasharray:11.5184,11.5184;}
	.st12{fill:none;stroke:#53B4C7;stroke-width:3;stroke-miterlimit:10;stroke-dasharray:11.861,11.861;}
	.st13{fill:#D67448;}
	.st14{fill:#FFFFFF;}
</style>
<path class="st0" d="M459,602.3c0,17.1-24.2,13.8-44.2,8.9c-20.2-4.9-37.2-13.8-37.2-30.9c0-17.1,16.6-30.9,37.2-30.9
	S459,585.3,459,602.3z"/>
<path class="st0" d="M189.4,281v13.8c0,0,0,2,2.6,2c3.1,0,3.1-1.9,3.1-1.9V281H189.4z"/>
<path class="st1" d="M201,285.5c0,1.3-4.2,2.3-9.3,2.3c-5.1,0-9.3-1-9.3-2.3c0-1.3,4.2-26.5,9.3-26.5
	C196.8,259.1,201,284.3,201,285.5z"/>
<polyline class="st2" points="303.1,26 302.9,56.5 252.7,28 252.9,-2.1 303.1,26.4 "/>
<polyline class="st0" points="284.7,35.7 285.2,67.8 234.3,37.7 234.5,7.6 284.7,36.2 "/>
<polyline class="st2" points="267,46.1 266.9,76.6 216.6,48.1 216.8,18 267,46.5 "/>
<polyline class="st0" points="249.3,56.2 249.1,86.7 198.9,58.2 199.1,28.1 249.3,56.6 "/>
<polyline class="st2" points="231.6,66.6 231.4,97.1 181.2,68.6 181.4,38.5 231.6,67 "/>
<polyline class="st3" points="328.6,113 153.9,211.6 273.8,279.7 274.6,280.1 72.5,393.9 322,535.2 204,601.7 324.1,669.9 "/>
<polygon class="st4" points="320.5,46.4 213.3,106.8 213.3,165.1 320.5,104.7 "/>
<polygon class="st5" points="213.2,140.3 322.7,78.5 322.7,88.2 213.3,150.3 "/>
<polyline class="st3" points="393.3,671.2 273.6,603.2 391.9,536.8 142.2,395.5 346.6,280 225.9,211.6 391.3,118.3 "/>
<g>
	<g>
		<line class="st6" x1="357.7" y1="671.2" x2="352.5" y2="668.2"/>
		<line class="st7" x1="342.5" y1="662.6" x2="248.2" y2="609"/>
		<polyline class="st6" points="243.2,606.2 238,603.2 243.3,600.3 		"/>
		<line class="st8" x1="253.1" y1="594.8" x2="346.1" y2="542.5"/>
		<polyline class="st6" points="351,539.7 356.3,536.8 351,533.8 		"/>
		<line class="st9" x1="340.6" y1="528" x2="117" y2="401.4"/>
		<polyline class="st6" points="111.8,398.5 106.6,395.5 111.8,392.6 		"/>
		<line class="st10" x1="122" y1="386.8" x2="300.6" y2="285.8"/>
		<polyline class="st6" points="305.7,282.9 311,280 305.7,277 		"/>
		<line class="st11" x1="295.7" y1="271.3" x2="200.5" y2="217.4"/>
		<polyline class="st6" points="195.5,214.6 190.3,211.6 195.5,208.6 		"/>
		<line class="st12" x1="205.8" y1="202.8" x2="345.3" y2="124.1"/>
		<line class="st6" x1="350.5" y1="121.2" x2="355.7" y2="118.3"/>
	</g>
</g>
<polygon class="st5" points="322.7,88.2 322.7,104 311.9,110.2 311.9,94.1 "/>
<polygon class="st5" points="224.1,144.3 224.1,160 213.2,166.2 213.2,150.1 "/>
<polygon class="st5" points="230.1,109.1 230.1,124.9 219.3,131.1 219.3,115 "/>
<polygon class="st5" points="246.8,99.9 246.8,115.7 236,121.9 236,105.8 "/>
<polygon class="st5" points="263.5,90.7 263.5,106.4 252.7,112.6 252.7,96.5 "/>
<polygon class="st5" points="280.2,81.2 280.2,97 269.4,103.1 269.4,87 "/>
<polygon class="st5" points="296.9,72 296.9,87.7 286.1,93.9 286.1,77.8 "/>
<polygon class="st5" points="313.6,62.7 313.6,78.5 302.8,84.7 302.8,68.6 "/>
<polygon class="st4" points="320.5,46.4 302.6,26 302.6,56.5 "/>
<polygon class="st4" points="302.6,56.5 284.7,36.1 284.7,66.6 "/>
<polygon class="st4" points="284.8,66.6 266.9,46.2 266.9,76.6 "/>
<polygon class="st4" points="266.9,76.6 249,56.3 249,86.7 "/>
<polygon class="st4" points="249,86.7 231.2,66.3 231.2,96.8 "/>
<polygon class="st4" points="231.2,97 213.3,76.6 213.3,107.1 "/>
<polyline class="st0" points="213.3,76.6 213.3,165.1 163.1,136.6 163.1,48.5 213.3,77.1 "/>
<polygon class="st5" points="202.5,144.3 202.5,160 213.3,166.2 213.3,150.1 "/>
<polygon class="st5" points="162.9,121.3 162.9,137 173.7,143.2 173.7,127.1 "/>
<polygon class="st5" points="199.5,110.9 199.5,126.7 210.3,132.8 210.3,116.7 "/>
<polygon class="st5" points="182.8,101.7 182.8,117.4 193.6,123.6 193.6,107.5 "/>
<polygon class="st5" points="166.1,92.4 166.1,108.2 176.9,114.4 176.9,98.3 "/>
<polygon class="st5" points="213.3,140.3 163,111.9 162.9,121.6 213.5,150.5 "/>
<path class="st0" d="M165.3,178.4v13.8c0,0,0,2,2.6,2c3.1,0,3.1-1.9,3.1-1.9v-13.9H165.3z"/>
<path class="st1" d="M176.9,175.9c0,3-4.2,5.4-9.3,5.4c-5.1,0-9.3-2.4-9.3-5.4c0-3,4.2-62.9,9.3-62.9
	C172.8,113,176.9,172.9,176.9,175.9z"/>
<path class="st0" d="M185.9,169.1v13.8c0,0,0,2,2.6,2c3.1,0,3.1-1.9,3.1-1.9v-13.9H185.9z"/>
<path class="st1" d="M197.5,173.6c0,1.3-4.2,2.3-9.3,2.3c-5.1,0-9.3-1-9.3-2.3s4.2-26.5,9.3-26.5
	C193.3,147.2,197.5,172.4,197.5,173.6z"/>
<path class="st0" d="M181.1,297.6v13.8c0,0,0,2,2.6,2c3.1,0,3.1-1.9,3.1-1.9v-13.9H181.1z"/>
<path class="st1" d="M192.6,295.1c0,3-4.2,5.4-9.3,5.4c-5.1,0-9.3-2.4-9.3-5.4c0-3,4.2-62.9,9.3-62.9
	C188.5,232.2,192.6,292.1,192.6,295.1z"/>
<path class="st0" d="M201.7,288.3V302c0,0,0,2,2.6,2c3.1,0,3.1-1.9,3.1-1.9v-13.9H201.7z"/>
<path class="st1" d="M213.2,292.8c0,1.3-4.2,2.3-9.3,2.3s-9.3-1-9.3-2.3s4.2-26.5,9.3-26.5S213.2,291.6,213.2,292.8z"/>
<path class="st0" d="M232.1,412.5v13.8c0,0,0,2,2.6,2c3.1,0,3.1-1.9,3.1-1.9v-13.9H232.1z"/>
<path class="st1" d="M243.7,410c0,3-4.2,5.4-9.3,5.4c-5.1,0-9.3-2.4-9.3-5.4c0-3,4.2-62.9,9.3-62.9C239.5,347.1,243.7,407,243.7,410
	z"/>
<path class="st0" d="M220,413.1v13.8c0,0,0,2,2.6,2c3.1,0,3.1-1.9,3.1-1.9v-13.9H220z"/>
<path class="st1" d="M231.6,417.6c0,1.3-4.2,2.3-9.3,2.3s-9.3-1-9.3-2.3c0-1.3,4.2-26.5,9.3-26.5S231.6,416.4,231.6,417.6z"/>
<path class="st0" d="M208.1,403.2v13.8c0,0,0,2,2.6,2c3.1,0,3.1-1.9,3.1-1.9v-13.9H208.1z"/>
<path class="st1" d="M219.6,407.7c0,1.3-4.2,2.3-9.3,2.3s-9.3-1-9.3-2.3s4.2-26.5,9.3-26.5S219.6,406.5,219.6,407.7z"/>
<path class="st0" d="M232.6,556.5v13.8c0,0,0,2,2.6,2c3.1,0,3.1-1.9,3.1-1.9v-13.9H232.6z"/>
<path class="st1" d="M244.2,555.4c0,2.2-4.2,4-9.3,4c-5.1,0-9.3-1.8-9.3-4c0-2.2,4.2-46.1,9.3-46.1
	C240,509.3,244.2,553.2,244.2,555.4z"/>
<path class="st0" d="M198.3,564.6v13.8c0,0,0,2,2.6,2c3.1,0,3.1-1.9,3.1-1.9v-13.9H198.3z"/>
<path class="st1" d="M209.9,563.5c0,2.2-4.2,4-9.3,4c-5.1,0-9.3-1.8-9.3-4c0-2.2,4.2-46.1,9.3-46.1
	C205.7,517.4,209.9,561.3,209.9,563.5z"/>
<path class="st0" d="M268.4,534.2V548c0,0,0,2,2.6,2c3.1,0,3.1-1.9,3.1-1.9v-13.9H268.4z"/>
<path class="st1" d="M279.9,538.8c0,1.3-4.2,2.3-9.3,2.3c-5.1,0-9.3-1-9.3-2.3s4.2-26.5,9.3-26.5
	C275.8,512.3,279.9,537.5,279.9,538.8z"/>
<path class="st0" d="M208.6,547.1v13.8c0,0,0,2,2.6,2c3.1,0,3.1-1.9,3.1-1.9v-13.9H208.6z"/>
<path class="st1" d="M220.1,551.7c0,1.3-4.2,2.3-9.3,2.3s-9.3-1-9.3-2.3s4.2-26.5,9.3-26.5S220.1,550.4,220.1,551.7z"/>
<path class="st0" d="M422.6,452.7v13.8c0,0,0,2,2.6,2c3.1,0,3.1-1.9,3.1-1.9v-13.9H422.6z"/>
<path class="st1" d="M434.2,451.6c0,2.2-4.2,4-9.3,4c-5.1,0-9.3-1.8-9.3-4c0-2.2,4.2-46.1,9.3-46.1
	C430,405.5,434.2,449.4,434.2,451.6z"/>
<path class="st0" d="M388.3,460.8v13.8c0,0,0,2,2.6,2c3.1,0,3.1-1.9,3.1-1.9v-13.9H388.3z"/>
<path class="st1" d="M399.9,459.7c0,2.2-4.2,4-9.3,4c-5.1,0-9.3-1.8-9.3-4s4.2-46.1,9.3-46.1C395.7,413.6,399.9,457.5,399.9,459.7z"
	/>
<path class="st0" d="M414.2,481.1v13.8c0,0,0,2,2.6,2c3.1,0,3.1-1.9,3.1-1.9v-13.9H414.2z"/>
<path class="st1" d="M425.7,485.7c0,1.3-4.2,2.3-9.3,2.3c-5.1,0-9.3-1-9.3-2.3s4.2-26.5,9.3-26.5
	C421.6,459.2,425.7,484.4,425.7,485.7z"/>
<path class="st0" d="M458.2,445v13.8c0,0,0,2,2.6,2c3.1,0,3.1-1.9,3.1-1.9V445H458.2z"/>
<path class="st1" d="M469.8,449.6c0,1.3-4.2,2.3-9.3,2.3c-5.1,0-9.3-1-9.3-2.3c0-1.3,4.2-26.5,9.3-26.5
	C465.6,423.1,469.8,448.4,469.8,449.6z"/>
<path class="st0" d="M370.6,188v13.8c0,0,0,2,2.6,2c3.1,0,3.1-1.9,3.1-1.9V188H370.6z"/>
<path class="st1" d="M382.1,186.9c0,2.2-4.2,4-9.3,4c-5.1,0-9.3-1.8-9.3-4c0-2.2,4.2-46.1,9.3-46.1
	C378,140.8,382.1,184.7,382.1,186.9z"/>
<polygon class="st1" points="287.3,225.9 353.1,263.5 353.7,209.8 287.8,174.1 "/>
<g>
	<polygon class="st1" points="325.1,377.1 295.6,360.2 295.6,326.8 325.1,343.6 	"/>
	<polygon class="st13" points="355.9,361.2 295.6,326.8 348.3,296.7 408.6,331.2 	"/>
	<g>
		<polygon class="st14" points="311,343.4 311,359.1 317.9,363 317.9,347.3 		"/>
		<polygon class="st14" points="307.8,341.6 301,337.7 301,353.4 307.8,357.3 		"/>
	</g>
	<polygon class="st5" points="325.1,377.1 353.1,359.6 325.1,343.6 	"/>
	<polygon class="st1" points="332.9,388.4 403.8,346.4 415.8,351.6 344.3,394.9 	"/>
	<polygon class="st13" points="349.9,385.7 346.3,383.8 346.3,354 349.9,356.5 	"/>
	<polygon class="st5" points="349.9,385.7 365.5,376.1 365.5,355.7 355.9,361.2 349.9,357.8 	"/>
	<polygon class="st1" points="352.1,359.1 352.1,372.4 363.7,365 363.7,356.6 355.9,361.2 	"/>
	<polygon class="st13" points="381.6,367.8 378,365.9 378,336.1 381.6,338.6 	"/>
	<polygon class="st5" points="381.6,367.8 397.2,358.2 397.2,337.6 381.6,346.3 	"/>
	<polygon class="st1" points="383.8,345.1 383.8,354.5 395.4,347 395.4,338.7 	"/>
	<polygon class="st1" points="399.8,371 420.1,383.5 420.1,308 399.8,296.7 	"/>
	<polygon class="st13" points="399.8,296.7 405.3,293.5 425.9,304.8 420.1,308 	"/>
	<polygon class="st5" points="425.9,304.8 425.9,379.6 420.1,383.5 420.1,308 	"/>
	<polygon class="st5" points="403.9,309.9 416.4,316.8 416.4,340.1 404.1,333.8 	"/>
	<polygon class="st5" points="311,317.2 311,306.9 329.7,296.7 329.7,306.5 	"/>
	<polygon class="st5" points="328.9,300 336,313.1 334.9,314 333.6,313.2 327.9,301.4 	"/>
	<polygon class="st5" points="312.7,310.2 319.8,323.3 318.7,324.2 317.4,323.4 311.7,311.7 	"/>
</g>
<polygon class="st13" points="293.6,229.4 293.6,236.4 300.4,240.3 300.4,233.2 "/>
<polygon class="st13" points="340.9,256.5 340.9,263.4 347.6,267.3 347.6,260.3 "/>
<polygon class="st13" points="166.1,327.6 115.5,356.2 115.5,306.5 137,254.8 164.2,289.8 "/>
<polygon class="st1" points="115.5,306.5 54.1,271.2 79.8,220.7 138.6,253 "/>
<polygon class="st1" points="138.6,253 168.6,289.5 164.2,289.8 137.3,255.9 "/>
<polygon class="st0" points="58.5,272.8 58.5,323.6 115.5,356.2 115.5,306.5 "/>
<polygon class="st5" points="138.8,273.5 145.4,282.3 145.7,296.7 133.1,303.8 133.1,289.2 "/>
<polygon class="st14" points="132.7,320.9 147,312.9 146.9,338.5 132.2,346.8 "/>
<polygon class="st5" points="131.6,347.1 134.6,345.4 134.6,323.1 144.7,317.1 144.7,339.7 147.4,338.2 147.4,312.7 131.6,321.6 "/>
<polygon class="st5" points="97.3,315.2 97.3,330.9 108.1,337.1 108.1,321 "/>
<polygon class="st5" points="80.6,305.9 80.6,321.7 91.4,327.9 91.4,311.8 "/>
<polygon class="st5" points="63.9,296.7 63.9,312.5 74.7,318.7 74.7,302.6 "/>
<path class="st0" d="M55.1,334.6v13.8c0,0,0,2,2.6,2c3.1,0,3.1-1.9,3.1-1.9v-13.9H55.1z"/>
<path class="st1" d="M66.7,339.2c0,1.3-4.2,2.3-9.3,2.3s-9.3-1-9.3-2.3c0-1.3,4.2-26.5,9.3-26.5S66.7,338,66.7,339.2z"/>
<path class="st0" d="M46.7,351.3V365c0,0,0,2,2.6,2c3.1,0,3.1-1.9,3.1-1.9v-13.9H46.7z"/>
<path class="st1" d="M58.3,348.8c0,3-4.2,5.4-9.3,5.4s-9.3-2.4-9.3-5.4c0-3,4.2-62.9,9.3-62.9S58.3,345.8,58.3,348.8z"/>
<path class="st0" d="M68,336v18.9c0,0,0,2.8,2.9,2.8c3.4,0,3.3-2.6,3.3-2.6V336H68z"/>
<path class="st1" d="M80.6,342.3c0,1.7-4.5,3.1-10.2,3.1c-5.6,0-10.2-1.4-10.2-3.1s4.5-36.4,10.2-36.4
	C76,305.9,80.6,340.6,80.6,342.3z"/>
<polygon class="st5" points="155.7,209 153,210.6 153,147.8 155.7,146.2 "/>
<ellipse class="st5" cx="159.7" cy="150.2" rx="8.9" ry="5"/>
<polygon class="st5" points="307.1,486 309.8,487.6 309.8,424.7 307.1,423.1 "/>
<ellipse class="st5" cx="303.1" cy="427.2" rx="8.9" ry="5"/>
<path class="st13" d="M398.9,552.5c-12.5,5-21.2,15.6-21.2,27.9c0,17.1,17,25.9,37.2,30.9c19.9,4.9,44.2,8.2,44.2-8.9
	C444.2,577.1,422.7,553.8,398.9,552.5z"/>
<ellipse class="st5" cx="387.7" cy="589.8" rx="7.4" ry="13.7"/>
<ellipse class="st5" cx="389.7" cy="589.5" rx="7.4" ry="13.7"/>
<path class="st5" d="M449.8,611c1.3-10.6,7.4-5.6,7.3-3.5c-0.1,2,36.4,1.3,8-49.9c-28.4-51.2-37.7-30.7-45.4-5.1h-5.3
	c0,0,2-20,15.7-30.2s25.7,9.8,33.7,21.3c8,11.5,22.6,37.2,18.2,54.1c-4.4,16.8-16.6,18.6-22.2,17.5C454.3,614.1,449.8,611,449.8,611
	z"/>
<polygon class="st5" points="416,544.6 422,545.1 404,632.9 393.5,627.6 "/>
<polygon class="st5" points="376.4,617.4 420.2,632.9 412.4,647.1 368.3,627.1 "/>
<polygon class="st2" points="108.1,511 178.9,466.4 178.9,540.2 108.1,583.8 "/>
<polygon class="st4" points="178.9,466.4 80.6,409.4 9.3,449.8 108.1,511 "/>
<polygon class="st0" points="9.3,449.8 9.3,525.1 108.1,583.8 108.1,511 "/>
<polygon class="st5" points="165.3,474.9 165.3,550.6 178.8,558.9 191.5,551.7 191.5,474.9 178.9,466.4 "/>
<polygon class="st5" points="165.3,538.9 108.1,573.5 9.3,514 9.3,525.1 108.1,583.8 165.3,550.5 "/>
<polygon class="st1" points="191.5,478.1 207.4,487.6 207.4,507.7 191.5,497.7 "/>
<polygon class="st1" points="54.1,435.4 117.2,470.9 123.1,466.5 123.1,430.6 60.1,393.8 55.6,395.6 "/>
<polygon class="st5" points="118.8,432.3 91.4,483.5 97.3,479.5 118.8,439.8 "/>
<polygon class="st5" points="56.8,396.6 29.4,447.8 35.3,443.8 56.8,404.1 "/>
<polygon class="st5" points="85.8,531.9 85.8,555.7 96.6,562.7 96.6,538.6 "/>
<polygon class="st5" points="69.1,522.6 69.1,545.7 79.9,552.7 79.9,529.3 "/>
<polygon class="st5" points="52.4,512.7 52.4,535.8 63.2,542.8 63.2,519.4 "/>
<polygon class="st5" points="35.7,503.5 35.7,526.5 46.5,533.5 46.5,510.1 "/>
<polygon class="st5" points="19,493.5 19,516.6 29.8,523.6 29.8,500.2 "/>
<polygon class="st5" points="85.8,504.8 85.8,528.6 96.6,535.6 96.6,511.5 "/>
<polygon class="st5" points="69.1,495.5 69.1,518.6 79.9,525.6 79.9,502.2 "/>
<polygon class="st5" points="52.4,485.6 52.4,508.7 63.2,515.7 63.2,492.3 "/>
<polygon class="st5" points="35.7,476.4 35.7,499.4 46.5,506.4 46.5,483 "/>
<polygon class="st5" points="19,466.4 19,489.5 29.8,496.5 29.8,473.1 "/>
<polygon class="st5" points="126.7,534.1 126.7,557.9 115.9,565.1 115.9,541 "/>
<polygon class="st5" points="143.3,524.3 143.3,547.5 132.5,554.8 132.5,531.3 "/>
<polygon class="st5" points="160.1,513.8 160.1,537.1 149.2,544.4 149.2,520.8 "/>
<polygon class="st5" points="126.7,506.9 126.7,530.7 115.9,538 115.9,513.9 "/>
<polygon class="st5" points="143.3,497 143.3,520.3 132.5,527.6 132.5,504.1 "/>
<polygon class="st5" points="160.1,486.4 160.1,509.8 149.2,517.1 149.2,493.5 "/>
</svg>
