<?xml version="1.0" encoding="utf-8"?>
<!-- Generator: Adobe Illustrator 24.0.1, SVG Export Plug-In . SVG Version: 6.00 Build 0)  -->
<svg version="1.1" id="Calque_1" xmlns="http://www.w3.org/2000/svg" xmlns:xlink="http://www.w3.org/1999/xlink" x="0px" y="0px"
	 viewBox="0 0 38 30.4" style="enable-background:new 0 0 38 30.4;" xml:space="preserve">
<style type="text/css">
	.st0{fill:#883E46;}
	.st1{fill:#E56E3B;}
	.st2{fill:#D76819;}
	.st3{fill:#10B6CA;}
	.st4{fill:#B75817;}
</style>
<g>
	
		<ellipse transform="matrix(4.880672e-02 -0.9988 0.9988 4.880672e-02 -15.49 26.35)" class="st0" cx="6.1" cy="21.3" rx="4" ry="2.4"/>
	<polygon class="st1" points="12.3,23.3 37.2,9.7 35.9,16.5 13.4,28.6 	"/>
	<polygon class="st1" points="16.6,22.2 18.9,12.3 27.8,7.6 32.7,10.5 37.2,9.7 27.4,17.4 	"/>
	<polygon class="st2" points="27.8,7.6 16,1.8 8.1,5.8 18.9,12.3 	"/>
	<polygon class="st3" points="6.7,14.2 8.5,6.1 18.9,12.3 17.4,20.4 	"/>
	<polygon class="st4" points="21.2,4.5 25.5,3.7 37.2,9.7 32.7,10.5 27.3,7.4 	"/>
	<polygon class="st2" points="17.4,20.4 6.7,14.2 0.3,16.9 12.3,23.3 	"/>
	<polygon class="st0" points="13.4,28.6 2.1,22.2 0.3,16.9 12.3,23.3 	"/>
	
		<ellipse transform="matrix(4.880672e-02 -0.9988 0.9988 4.880672e-02 -8.6995 43.1679)" class="st0" cx="18.3" cy="26.2" rx="4" ry="2.4"/>
	
		<ellipse transform="matrix(4.880672e-02 -0.9988 0.9988 4.880672e-02 13.4324 48.6671)" class="st0" cx="32.3" cy="17.3" rx="4" ry="2.4"/>
	<polygon class="st3" points="21.1,12.3 27.8,8.2 32.3,11.2 20.1,18.5 	"/>
	<polygon class="st2" points="8.1,5.8 6.7,14.2 7.2,14.4 8.5,6.1 	"/>
</g>
</svg>
