<?xml version="1.0" encoding="utf-8"?>
<!-- Generator: Adobe Illustrator 24.0.1, SVG Export Plug-In . SVG Version: 6.00 Build 0)  -->
<svg version="1.1" id="Calque_1" xmlns="http://www.w3.org/2000/svg" xmlns:xlink="http://www.w3.org/1999/xlink" x="0px" y="0px"
	 viewBox="0 0 38 30.4" style="enable-background:new 0 0 38 30.4;" xml:space="preserve">
<style type="text/css">
	.st0{fill:#E56E3B;}
	.st1{fill:#D76819;}
	.st2{fill:#10B6CA;}
	.st3{fill:#B75817;}
	.st4{fill:#883E46;}
</style>
<g>
	<polygon class="st0" points="25.3,23.5 0.4,9.9 1.7,16.7 24.2,28.8 	"/>
	<polygon class="st0" points="20.9,22.4 15,10.2 8.9,7 6.2,9.9 0.4,9.9 10.2,17.6 	"/>
	<polygon class="st1" points="8.9,7 19.3,0.4 25.8,3.7 15,10.2 	"/>
	<polygon class="st2" points="30.8,14.4 25.4,3.9 15,10.2 20.1,20.7 	"/>
	<polygon class="st3" points="15,3.1 11.8,2.4 0.4,9.9 6.2,9.9 8.9,7 	"/>
	<polygon class="st1" points="20.1,20.7 30.8,14.4 37.2,17.1 25.3,23.5 	"/>
	<polygon class="st4" points="24.2,28.8 35.4,22.4 37.2,17.1 25.3,23.5 	"/>
	<ellipse transform="matrix(0.39 -0.9208 0.9208 0.39 6.432801e-02 44.7788)" class="st2" cx="33.8" cy="22.3" rx="1.7" ry="1.3"/>
	<ellipse transform="matrix(0.39 -0.9208 0.9208 0.39 -7.12 41.3393)" class="st2" cx="27.6" cy="26" rx="1.7" ry="1.3"/>
	
		<ellipse transform="matrix(0.9988 -4.880672e-02 4.880672e-02 0.9988 -1.2642 0.9689)" class="st4" cx="19.2" cy="26.4" rx="2.4" ry="4"/>
	
		<ellipse transform="matrix(0.9988 -4.880672e-02 4.880672e-02 0.9988 -0.8874 0.2783)" class="st4" cx="5.3" cy="18.3" rx="2.4" ry="4"/>
	<polygon class="st2" points="14.7,10.6 9.2,7.6 5.8,11.8 17.4,18.7 	"/>
	<polygon class="st1" points="25.8,3.7 30.8,14.4 30.4,14.7 25.4,3.9 	"/>
</g>
</svg>
