<?xml version="1.0" encoding="utf-8"?>
<!-- Generator: Adobe Illustrator 24.0.1, SVG Export Plug-In . SVG Version: 6.00 Build 0)  -->
<svg version="1.1" id="Calque_1" xmlns="http://www.w3.org/2000/svg" xmlns:xlink="http://www.w3.org/1999/xlink" x="0px" y="0px"
	 viewBox="0 0 287.8 112.6" style="enable-background:new 0 0 287.8 112.6;" xml:space="preserve">
<style type="text/css">
	.st0{fill:#00EEDE;}
	.st1{fill:#00A096;}
</style>
<ellipse class="st0" cx="256" cy="57.6" rx="17" ry="18.6"/>
<ellipse class="st0" cx="191.5" cy="58.6" rx="23.5" ry="27"/>
<ellipse class="st0" cx="106.5" cy="58.6" rx="23.5" ry="27"/>
<ellipse class="st0" cx="39.1" cy="71.1" rx="17.8" ry="17.8"/>
<path class="st1" d="M259,74.6c-11,1.7-14.6-7.8-14.6-7.8c5.3,5.2,20.6,6.8,25.6-1.2C270,65.6,270,72.9,259,74.6z"/>
<path class="st1" d="M195,82.6c-15,3-21-8-21-8c8,4,28,4,37-4C211,70.6,210,79.6,195,82.6z"/>
<path class="st1" d="M108,83.6c-14,2-17-9-17-9c6,5,20,7,33-2C124,72.6,122,81.6,108,83.6z"/>
<path class="st1" d="M42,87.6c-8,2-14-4-14-4c5,2,20,3,24-3C52,80.6,50,85.6,42,87.6z"/>
</svg>
