<?xml version="1.0" encoding="utf-8"?>
<!-- Generator: Adobe Illustrator 24.0.1, SVG Export Plug-In . SVG Version: 6.00 Build 0)  -->
<svg version="1.1" id="Calque_1" xmlns="http://www.w3.org/2000/svg" xmlns:xlink="http://www.w3.org/1999/xlink" x="0px" y="0px"
	 viewBox="0 0 287.8 112.6" style="enable-background:new 0 0 287.8 112.6;" xml:space="preserve">
<style type="text/css">
	.st0{fill:#00EEDE;}
	.st1{fill:#00A096;}
</style>
<path class="st0" d="M217.7,3.6c-8,3-27,10-32,34s4,60,36,64s59-17,58-51s-15-47-48-49C231.7,1.6,225.7,0.6,217.7,3.6z"/>
<path class="st0" d="M38.7,11.6c-8,3-27,10-32,34s4,60,36,64s59-17,58-51s-15-47-48-49C52.7,9.6,46.7,8.6,38.7,11.6z"/>
<path class="st1" d="M235.7,98.6c-29,3-40-20-40-20c5,8,51,27,76-3.9C271.7,74.7,264.7,95.6,235.7,98.6z"/>
<path class="st1" d="M57.7,104.6c-28,3-36-13-36-13c6,9,57,10,72.5-7.8C94.2,83.8,85.7,101.6,57.7,104.6z"/>
</svg>
