<?xml version="1.0" encoding="utf-8"?>
<!-- Generator: Adobe Illustrator 24.0.1, SVG Export Plug-In . SVG Version: 6.00 Build 0)  -->
<svg version="1.1" id="Calque_1" xmlns="http://www.w3.org/2000/svg" xmlns:xlink="http://www.w3.org/1999/xlink" x="0px" y="0px"
	 viewBox="0 0 196 254" style="enable-background:new 0 0 196 254;" xml:space="preserve">
<style type="text/css">
	.st0{fill:#00A096;}
	.st1{fill:#00EEDE;}
</style>
<path class="st0" d="M154.1,214c-6.2,14.2,6.2,15.4,1.1,22.9c-5.1,7.5,9.5,10.5,22.8,5.7s0.8-33.9-5.6-50.4
	C172.4,192.2,160.3,199.8,154.1,214z"/>
<ellipse class="st1" cx="90.9" cy="68.2" rx="72.4" ry="63.8"/>
<ellipse class="st1" cx="95.2" cy="162" rx="84.9" ry="72.2"/>
<ellipse class="st0" cx="108.3" cy="187.3" rx="43.8" ry="33.7"/>
<path class="st1" d="M141,123.3c25.4,21.6,36.6,12.3,25.9,0c-10.7-12.3-16-19.4-4.3-45.8C162.6,77.5,115.6,101.7,141,123.3z"/>
<path class="st1" d="M40,127.6c-14.2,27-32.6,18-21.9,4.5c10.6-13.5,13.4-23.1,1.7-52C19.8,80.1,56.3,96.7,40,127.6z"/>
<path class="st0" d="M53.6,220.6c6.2,14.2-6.2,15.4-1.1,22.9S43,254,29.7,249.2s-0.8-33.9,5.6-50.4
	C35.3,198.8,47.4,206.5,53.6,220.6z"/>
<path class="st0" d="M11.4,166c1,8.3,9.8,15.7,20.5,18.1c10.8,2.4,24.5-5.4,27.4-10.3c2.9-4.9-1-6.8-9.8-7.8s-15.6-3-19.5-10.3
	c-3.9-7.4,5.9-9.8,5.9-9.8s-5.9,4.9,0,12.7c5.8,7.8,31.2,1.9,28.3,14.2c-2.9,12.3-26.3,19.1-44.9,11.3s-16.6-30.8,7.8-56.3
	C27.1,127.8,10.5,157.6,11.4,166z"/>
<path class="st1" d="M173.7,140.6c-5,7.5-23.3,12.1-34.7,14.9s-11.2,7.8-6.1,13c1.3,1.4,12.2,4.6,23.6,5.1
	c11.4,0.5,10.6-7.8,17.5-12.5s16.8-15.3,16-26s-11.5-15.8-31.4-20.2C158.6,114.9,178.7,133.1,173.7,140.6z"/>
<path class="st0" d="M166.9,143.3c1.6-1.4,3.5-11.6,4.6-4.6c0.8,5.1-3.8,7.9-9.9,10.7c-13.8,6.3-26.7,6.9-29.7,11.1s3,7.4,16.8,10.2
	s15.2,1.4,17.7-3.6s6.8-8.4,12.1-12.6s9.9-10.2,9.9-10.2s-4.3,9.4-11.4,14.4s-7.7,22.3-33.6,15.8s-20.6-19,0-21.8
	C152.5,151.5,160.5,149.4,166.9,143.3z"/>
</svg>
