<?xml version="1.0" encoding="utf-8"?>
<!-- Generator: Adobe Illustrator 24.0.1, SVG Export Plug-In . SVG Version: 6.00 Build 0)  -->
<svg version="1.1" id="Calque_1" xmlns="http://www.w3.org/2000/svg" xmlns:xlink="http://www.w3.org/1999/xlink" x="0px" y="0px"
	 viewBox="0 0 154 106" style="enable-background:new 0 0 154 106;" xml:space="preserve">
<style type="text/css">
	.st0{fill:#FFFFFF;}
</style>
<ellipse class="st0" cx="115.8" cy="73.6" rx="19.1" ry="22"/>
<ellipse cx="112.5" cy="73.6" rx="11.4" ry="13.2"/>
<ellipse class="st0" cx="30.5" cy="76.6" rx="19.1" ry="22"/>
<ellipse cx="33.8" cy="76.6" rx="11.4" ry="13.2"/>
<ellipse class="st0" cx="49.6" cy="41.4" rx="8.9" ry="10.3"/>
<ellipse cx="49.7" cy="44.3" rx="5.3" ry="6.2"/>
<ellipse class="st0" cx="90.1" cy="41.4" rx="8.9" ry="10.3"/>
<ellipse cx="88.8" cy="44.3" rx="5.3" ry="6.2"/>
<ellipse class="st0" cx="68.2" cy="26.3" rx="8.9" ry="10.3"/>
<ellipse cx="68.3" cy="29.2" rx="5.3" ry="6.2"/>
<ellipse class="st0" cx="70.1" cy="51.6" rx="6.4" ry="7.3"/>
<ellipse cx="70.1" cy="53.7" rx="3.8" ry="4.4"/>
<ellipse transform="matrix(0.3155 -0.9489 0.9489 0.3155 44.2287 144.1039)" class="st0" cx="122" cy="41.4" rx="7.3" ry="6.4"/>
<ellipse transform="matrix(0.3155 -0.9489 0.9489 0.3155 41.8547 144.7972)" cx="121.3" cy="43.4" rx="4.4" ry="3.8"/>
<ellipse transform="matrix(0.8717 -0.49 0.49 0.8717 -20.8083 14.9292)" class="st0" cx="18.1" cy="47.2" rx="6.4" ry="7.3"/>
<ellipse transform="matrix(0.8717 -0.49 0.49 0.8717 -21.4693 15.7266)" cx="19.3" cy="48.9" rx="3.8" ry="4.4"/>
<ellipse class="st0" cx="112.5" cy="70.2" rx="4.3" ry="5.4"/>
<ellipse class="st0" cx="34.8" cy="70.7" rx="4.3" ry="5.4"/>
</svg>
