<?xml version="1.0" encoding="utf-8"?>
<!-- Generator: Adobe Illustrator 24.0.1, SVG Export Plug-In . SVG Version: 6.00 Build 0)  -->
<svg version="1.1" id="Calque_1" xmlns="http://www.w3.org/2000/svg" xmlns:xlink="http://www.w3.org/1999/xlink" x="0px" y="0px"
	 viewBox="0 0 89.8 114.9" style="enable-background:new 0 0 89.8 114.9;" xml:space="preserve">
<g>
	<path d="M50.3,68.7c-0.2,0.3-0.4,0.5-0.5,0.7c0,0-0.1,0-0.1,0c0.9-1.4,0.6-2-0.1-2.2c1.1-3.3-1.2-7.9-1.3-10.4
		c-0.5,1.5-1,1.9-1.3,2.5c0.2-0.5,0.4-1,0.6-1.5c0,0-0.1,0-0.1-0.1c-0.4,1-0.8,2-1.2,2.9c-0.1,0-0.1,0-0.2-0.1
		c1.8-3.8,1.7-5.1,1.6-7.4c-0.1,0.1-0.1,0.2-0.1,0.3c-0.1-0.1-0.1-0.2-0.2-0.4c-0.9,1.1-0.6,2.2-0.8,2.5c-1.6,1.1-0.9,2.9-1.5,3.4
		c0,0-0.1,0-0.1,0c0.2-1,0.4-1.9,0.6-2.9c-0.1,0-0.1,0-0.2-0.1c-2.7,5.9-5,8.8-10.7,9.2c1.7-0.2,3.1-0.9,4.5-1.8
		c-3.6,0.9-5.2,0.6-7,0c7.3,1.4,10.6-2.9,11.7-8.9c0,0-0.1,0-0.1,0c-1.5,4.3-5.1,7.2-8.6,8.3c0-0.1-0.1-0.1-0.1-0.2
		c4.5-1.4,7.3-5.5,8.1-9.1c-3.1,6.8-10.6,6.6-15.8,5c0,0,0-0.1,0-0.1c0.1,0,0.2,0,0.4-0.1c-3.6-0.6-6.8-1.7-6-3.9
		c0.3,0,0.5,0.1,0.7,0.1c0,0,0-0.1,0-0.1c-4-3.8-9.2-1.7-6.2-3.6c-2.4-2.5-6.1-3.6-8.3-4.5c0,0,0-0.1,0.1-0.1
		c0.2,0.1,0.4,0.1,0.6,0.2c0-0.1,0-0.2,0-0.4c2.8,1.3,4.7,1.5,6.3,1.8c0-0.2,0-0.3,0-0.5c1.5,0.7,3,0.2,3.2,0.3
		c-0.4-0.8-1.1-1.3-1.8-1.9c-0.1,0.3,0,0.2-0.1,0.3c-0.5-0.3-0.9-0.6-1.3-0.9c0,0,0-0.1,0-0.1c0.2,0.1,0.5,0.1,0.7,0.2
		c0,0,0-0.1,0.1-0.1c-1-0.6-2-1.2-2.9-1.7c0-0.1,0.1-0.2,0.1-0.3c-2.3-0.5-4.3-1.2-5.9-0.6c0-0.1,0-0.1,0-0.2c0.2,0,0.5-0.1,0.7-0.1
		c0,0,0-0.1,0-0.1c-2-0.2-3.5,0.5-4.6,0.7c0,0,0-0.1,0-0.1c3.2-1.9,6.1-0.5,7.9-1.6c-0.2-0.1-0.4-0.2-0.6-0.3c0,0,0-0.1,0-0.1
		c5.7-0.2-9-6.1-9.9-7.4c0,0,0.1-0.1,0.1-0.1c3.6,1.7,6.4,3.8,9.3,3.8c-0.1-0.2-0.2-0.4-0.3-0.7c0.3,0.1,0.6,0.2,1,0.3
		c0,0,0.1-0.1,0.1-0.1C10,35.1,9.4,34,8.8,32.8c0.1,0,0.1-0.1,0.2-0.1c2.2,4.5,2.9,3,3.9,0.6c0,0-0.1,0-0.1,0
		c-0.1,0.1-0.2,0.2-0.3,0.4c0.6-2.1,0-2.3-1.2-2.3c-1.9-1-4.2,2.9-6,2.2c11-4.6-4.3-5-5.1-9.9c0-0.1,0-0.2,0-0.3
		C20,41,6.6,9.8,28.1,21C47.6,16.7,39.8-1.1,61.5,0c6.1,1.4,6.2,8.4,11.7,9.3c3,0.4,1.3,2.4,1.3,2.9c-0.7,2,1.7,2.1,0.6,3.4
		c4.6,11.2-10.9,3.2-6.8,21.7c0,0-0.1,0-0.2-0.1C67.9,44.3,77.8,45.9,80,51c1.9,0.3,1.1,5.5,2,6.6c0-0.2,0-0.3,0.1-0.6
		c0.9,1.7,1,1.4,1.5,1c2.6-1.1-1.1-5.3-1.9-6.4c2.8,1.3,3.3,4.9,3.3,6.8c0.1,0,0.1,0,0.2,0c2.5-3.9,3.9-8,3.6-11.6c0,0,0.1,0,0.1,0
		c0.4,1.7,0.2,1.8,0.8,2.4c0.6,4.8-4.4,9.2-3.2,12.2c0,0-0.1,0.2-0.2,0.3c0,0,0.1,0,0.1,0.1c0.1-0.1,0.2-0.2,0.3-0.4
		c-0.1,2.8-7.1-0.9-3.7,2.3c-4.1-0.9-0.9,1.3-0.2,1.8c0,0,0,0.1,0,0.1c-1.6-0.8-2.2-1.1-1.7-0.2c-0.2-0.1-0.5-0.1-0.8-0.2
		c1.3,1.7,3.6,1.8,4.4,2.4c-1.3-0.1-2.4-0.5-3.6-1c1.2,1.2,1.8,1.8,2.1,2.4c-3-2.4-2-2-3.6-2.8c0.5,3.2-2.1,3.7-0.1,3.9
		c0.2,0.2,0.4,0.3,0.7,0.6c-0.7,0.3-1.2-0.2-1.6-0.2c-0.4-0.3-0.7-0.5-1-0.8c-1.7,16.1-3.2,31.5,4.2,45.1c-13.1,0-26.1,0-39.2,0
		C37.9,94.2,55.7,88.1,50.3,68.7z M11.3,29.7c4.9,1.6,7.8-2.8,9.9-4.2c10.9-0.1,11.8,1.2,15.6-6.3C23.5,28.3,19.9,8.2,11.3,29.7z
		 M14.9,39c5.3-0.9,10.4,0.4,14.1-1.6c0,0,0-0.1,0-0.1c-5-0.7-21.9,0.6-12.7,2.6c0-0.1,0-0.1,0.1-0.2C15.1,39.3,15.4,39.4,14.9,39z
		 M33.8,48.4c-16.5,8-3.5,7.3-2.2,3.5C32.6,51.9,34.4,49.1,33.8,48.4z M16.3,39.2c3.4,2.5,10,2.2,12-0.8C24,39,19.5,38.7,16.3,39.2z
		 M28.6,31.6c-3.6-0.5-11.5-1-6.8,2.6C25.7,34,27.9,32.9,28.6,31.6z M29.6,34.4c-3.5,1-6.8,0.8-9.2,1.5c0,0.1,0,0.1,0,0.2
		C23.5,36.8,30.5,37.7,29.6,34.4z M41.1,52.3c0,0-0.1-0.1-0.1-0.1c-0.1,0.1-0.2,0.1-0.2,0.2c0,0,0,0-0.1,0c0.1-0.2,0.2-0.5,0.4-0.7
		c-0.1-0.1-0.3-0.2-0.5-0.4c-1.6,2.8-3.9,4.8-5.8,5.7c-1.9,0.7-3.4,0.6-4.3,1.2c1.3,1.3,5.8,0,7.7-2.3c-0.9,0.3-1.6,1-2.5,1.1
		c0,0-0.1-0.1-0.1-0.1c2.2-1.2,4.1-2.6,4.8-4.1c0,0,0.1,0,0.1,0.1C40.8,52.6,41,52.5,41.1,52.3z M27.9,41.1c0,0,0,0.1,0,0.1
		c-0.7,0.2-1.5,0.4-2.2,0.6c0,0,0,0.1,0,0.1c2.9,1.1,3.9,0.2,4.6-1.4c-2-0.5-4.4,0.6-5.7,0.8C26.7,42,26.8,40.9,27.9,41.1z
		 M15.9,33.8c-0.1-0.1-0.2-0.1-0.4-0.2c1.4-1.3,2.8-1.9,3.1-2.9c-0.1-0.1-0.1-0.1-0.2-0.2c-2.1,2.4-5.6,2-5.7,5.2
		c0.1,0,0.1,0.1,0.2,0.1C15.4,33.7,15,34.6,15.9,33.8z M77.6,67.1c0.5,0.6,0,0.5-0.3,0.6c0.9,4.1,3.1-1.5,1.3-2.1c0,0,0,0.1-0.1,0.1
		C76.8,65.6,77.7,66.8,77.6,67.1z M37.1,17.5c-1.2,0.7-2.4,1.4-3.5,2.1c0,0-0.1-0.1-0.1-0.1c1.4-0.9,2.7-1.8,4.1-2.7
		C35,17.6,33,19.2,31.2,21C32.1,21.4,35.9,18.9,37.1,17.5z M26.9,28.6c0-0.5-0.1-0.4-0.1-0.6c-2.2-0.1-5.9-1.4-6.3,1.4
		C22.5,28.2,24.7,28.3,26.9,28.6z M39.9,44.6c-1.9,2.1-5.5,6.9-4.1,6.9C37.9,48,39.1,46.5,39.9,44.6z M30.6,55.7
		c0.8-0.5,2.1-1.9,2.1-2.3c-1.5,0.9-3,1.7-4.5,2.6C29.4,57.1,30.5,56.5,30.6,55.7z M27.4,43.5c-1.7-0.1-3.3-0.1-5.1-0.2
		C23.6,44.7,26.2,44.9,27.4,43.5z M33.7,33.8c0,0-0.1,0-0.1,0c0.3-1.1,0.3-1,0.4-1.3c-4.4,1.5-3.6,3.1-1.9,1.9
		C32.3,34.6,33.3,34.3,33.7,33.8z M18.4,50c1.2,1.7,2.7,1.8,3.6,2.4c-0.1-0.2-0.2-0.4-0.3-0.5c1.1-0.2,1.2,0,1.4-0.1
		c0-0.1,0-0.1,0-0.2C20.1,50.5,19.8,50.4,18.4,50z M32,55.2c0,0,0.1,0.1,0.1,0.1C38.6,49.6,32.6,52.4,32,55.2z M27.9,39.8
		c0.6,0.1,1.8-0.5,2.2-0.9c2.5-0.2,0.9-1.8,0.3-0.7C28.8,37.6,28.3,39.6,27.9,39.8z M34.4,56.4c1.4,0.1,4.6-2.6,4.4-3.8
		C37.4,53.9,35.9,55.2,34.4,56.4z M30.3,33.2c0.6,0.3,4-1.5,4.2-2.2C33,31.3,30.8,32.4,30.3,33.2z M20.3,32.6
		c-0.5-2.9-1.3,0.8-1.4,1.2C20.7,34.4,20.5,33.4,20.3,32.6z M20.4,41.5c2,1.5,3.2-0.1,4.2,0.2C22.3,40.9,21.4,41.5,20.4,41.5z
		 M19.4,49.8c1.5,0.9,3.6,1.1,4.1,1C21.2,49.7,20.5,49.3,19.4,49.8z M23.8,42.6c0,0.1,0,0.1,0,0.2C32.7,43.5,25.2,41.9,23.8,42.6z
		 M21.8,53.1c1,1,1.2,0.7,1.4,1C25.8,52.6,22.1,52.8,21.8,53.1z M15,30.9c1.3,0.5,1.9-0.3,2.3-0.7C15.8,30.1,15.1,30.2,15,30.9z
		 M67.8,36.4c0.1,0,0.1,0,0.2,0c0.3-2.2-0.2-4.2-0.3-5.3c0,0-0.1,0-0.1,0C67.6,33.4,67.9,35.3,67.8,36.4z M15.3,49.2
		c2.4,1.5,2.1,1,2.9,1.6c0,0,0-0.1,0.1-0.1C17,49.3,16.2,49,15.3,49.2z M22.1,29.7c1.4-0.2,2.7-0.3,4.1-0.5c0-0.1,0-0.2,0-0.2
		C23.8,29.1,22.8,29,22.1,29.7z M80.1,60c1.4,0.3-1.4-2.3-1.4-1.5C79.2,59.7,79.6,59.8,80.1,60z M79.9,56.8
		c-0.7,1.7,0.9,1.4,0.6,1.9C80.8,57.5,80.3,56.9,79.9,56.8z M13.6,39.6c-1.9-2.8-1.6,0.6-0.5,0.3c-0.1-0.6-0.5-0.5-0.5-0.6
		c0,0,0-0.1,0.1-0.1C13,39.3,13.3,39.4,13.6,39.6z M83.5,61.3c1.3,1,1.5,0.6,2,0.6c0-0.1,0-0.1,0-0.2C83.9,60.5,84.1,61,83.5,61.3z
		 M30.4,58.8c-0.6-1-1.5-0.4-2.2-0.7c0.1-0.1,0.2-0.1,0.4-0.2c-0.3-0.3-0.6-0.3-0.9-0.1C28.5,59.1,29.9,58.4,30.4,58.8z M28.3,56.9
		C27.9,56.3,27.7,56.1,28.3,56.9C25.1,55.5,28,57.3,28.3,56.9z M13.4,48.1c2.4,1.5,2.1,0.2,2.6,0.6C14.9,47.7,13.9,48.3,13.4,48.1z
		 M30.1,27.3c-0.4-0.3-2-0.2-2.2,0.1C29.3,28.1,29.6,27.6,30.1,27.3z M66.8,34.2c0.2-0.9,0-1.8-0.4-2.6
		C66.3,32.5,66.6,33.4,66.8,34.2z M89.1,49.5c-0.9,2.5,0,1.7-0.3,2.9C89.1,51.5,89.3,50.5,89.1,49.5z M30.3,30.1
		C29.5,30.3,29.6,30.1,30.3,30.1C29.1,32.4,30.4,30.2,30.3,30.1z M19.7,48.8c-0.4-0.7-0.6-0.8-2.2-0.7c0,0,0,0.1,0,0.1
		C19.1,48.3,19.2,48.9,19.7,48.8z M37.3,57.9c1-0.4,1.7-0.9,2.2-1.8C38.8,56.7,38.1,57.2,37.3,57.9z M80.1,62.4
		c-0.2-0.6-0.8-0.6-1.3-0.9C79,62.1,79.6,62.6,80.1,62.4z M34.6,48.5c0.3-0.4,0.6-0.8,0.9-1.2C34.7,47.4,34.3,48,34.6,48.5z
		 M78.4,65.1c-1.6-1.3-0.5,0.6-0.2,0.3C78.3,65.4,78.3,65.2,78.4,65.1z M26.6,56.8c-0.5-0.3-0.9-0.9-1.6-0.9
		C25.6,56.2,25.9,56.8,26.6,56.8z M16.9,40.5c-0.5-0.1-0.9-0.2-1.5-0.3C15.6,40.8,16.5,40.9,16.9,40.5z M24.1,51
		c-0.1,1.1,1,0.2,1.1,0.3c0,0,0-0.1,0-0.1C24.8,51.1,24.5,51.1,24.1,51z M16.3,34.1c1.1-0.6,0.6-1,0.8-1.2
		C16.1,33.7,16.3,33.8,16.3,34.1z M79.9,64.2C80.5,64.7,80.3,64.6,79.9,64.2C81.5,64.5,79.9,63.9,79.9,64.2z M11.8,41.8
		c0.1-0.2,0.2-0.3,0.4-0.4c-0.1-0.3-0.8-0.2-1.1,0.2C11.4,41.7,11.6,41.8,11.8,41.8z M23.2,56.2c0.2,0.4,0.5,0.6,1,0.5
		C24,56.2,23.8,56.2,23.2,56.2z M80.3,65c-0.8-0.7-0.6-0.5-1.1-0.3C80.2,65.3,79.9,65.2,80.3,65z M17.9,48.8
		c0.2,0.5,0.7,0.6,1.3,0.5c0-0.1,0-0.1,0.1-0.2C18.8,49.1,18.4,49,17.9,48.8z M47.9,55.1c0.2-0.2,0.2-0.2,0-1.4
		C47.6,54,47.6,54.3,47.9,55.1z M85.7,60.7c-0.4-0.8-0.5-0.3-0.8-0.2C85.6,61,85.5,60.9,85.7,60.7z M24.4,55.9
		c-0.1,0.5,0.3,0.9,0.9,1.2C25,56.7,24.7,56.3,24.4,55.9z M84.6,58.2c-0.1,0.3-0.2,0.5-0.4,0.8C84.7,58.9,84.8,58.7,84.6,58.2z
		 M18.9,46.6c0,0-0.1,0.1-0.1,0.1c0.2,0.2,0.4,0.5,0.5,0.7c0.1,0,0.1-0.1,0.2-0.1C19.2,47.1,19,46.9,18.9,46.6z M18.2,32.7
		C17.7,33.1,17.8,32.9,18.2,32.7C17.6,34,18.3,32.8,18.2,32.7z M78.4,63.7c0.1-0.4-0.3-0.6-0.4-0.4C78.1,63.4,78.3,63.6,78.4,63.7z
		 M80.5,62.8c0-0.1,0-0.1-0.1-0.2c-0.2,0-0.4,0.1-0.6,0.1c0,0.1,0,0.2,0.1,0.3C80.1,63,80.3,62.9,80.5,62.8z"/>
</g>
</svg>
