<?xml version="1.0" encoding="utf-8"?>
<!-- Generator: Adobe Illustrator 24.0.1, SVG Export Plug-In . SVG Version: 6.00 Build 0)  -->
<svg version="1.1" id="Calque_1" xmlns="http://www.w3.org/2000/svg" xmlns:xlink="http://www.w3.org/1999/xlink" x="0px" y="0px"
	 viewBox="0 0 338 103.3" style="enable-background:new 0 0 338 103.3;" xml:space="preserve">
<style type="text/css">
	.st0{fill:#FFFFFF;}
</style>
<path d="M62.6,55.3c65,31,187-3,237,0s45,52-38,39s-139-15-175-15s-79,15-79,15s11.3-11.5,27.1-17.7c15.8-6.2,21.2-12.3,22.9-14.3
	C59.3,60.4,62.6,55.3,62.6,55.3z"/>
<path class="st0" d="M251.2,90c5.4-59.7,26.4-73.7,41.4-76.7S311.4,90,311.4,90s-6.8,2.4-18.9,3.3c-14,1-28-1-33-2
	C255.5,90.4,251.2,90,251.2,90z"/>
<path class="st0" d="M35.5,82.2c35-9,58-8,58-8s-4-31-12-56s-30-19-39,10S35.5,82.2,35.5,82.2z"/>
</svg>
