<?xml version="1.0" encoding="utf-8"?>
<!-- Generator: Adobe Illustrator 24.0.1, SVG Export Plug-In . SVG Version: 6.00 Build 0)  -->
<svg version="1.1" id="Calque_1" xmlns="http://www.w3.org/2000/svg" xmlns:xlink="http://www.w3.org/1999/xlink" x="0px" y="0px"
	 viewBox="0 0 390 499" style="enable-background:new 0 0 390 499;" xml:space="preserve">
<style type="text/css">
	.st0{fill:#FFD800;}
	.st1{fill:#FFB100;}
	.st2{fill:#FFFFFF;}
	.st3{fill:#1DB8D3;}
</style>
<path class="st0" d="M384,236.8c0,215-73.2,262-182,262S5,388.7,5,252.8c0-14.9,53-29.5,55-43.7C76.5,94.1,105.2,9.2,202,6.8
	C365,2.8,384,100.9,384,236.8z"/>
<path class="st1" d="M50,247.8c14,119,85.1,200.5,146,205c97,7.2,147-54,147-54s-17,72-121,85s-162-59-191-140
	c-11.9-33.2-17-91-17-91L50,247.8z"/>
<ellipse class="st2" cx="110" cy="149.3" rx="24" ry="25.5"/>
<path class="st1" d="M132.6,176.8c0,17.1,13.1,31,29.2,31s-13.8-13.9-13.8-31s29.9-31,13.8-31S132.6,159.7,132.6,176.8z"/>
<circle cx="110" cy="150.8" r="18"/>
<circle class="st3" cx="113" cy="145.8" r="11"/>
<circle class="st2" cx="115" cy="143.8" r="5"/>
<ellipse class="st2" cx="237" cy="150.3" rx="24" ry="25.5"/>
<circle cx="237" cy="151.8" r="18"/>
<circle class="st3" cx="240" cy="146.8" r="11"/>
<circle class="st2" cx="242" cy="144.8" r="5"/>
<ellipse transform="matrix(0.9137 -0.4064 0.4064 0.9137 -0.1811 63.7509)" class="st1" cx="150" cy="32.3" rx="17.5" ry="11"/>
<ellipse transform="matrix(0.7071 -0.7071 0.7071 0.7071 30.353 163.8823)" class="st1" cx="213" cy="45.3" rx="11" ry="17.5"/>
<ellipse transform="matrix(0.7071 -0.7071 0.7071 0.7071 -125.9506 272.532)" class="st1" cx="266" cy="288.3" rx="11" ry="17.5"/>
</svg>
